<svg id="visual" viewBox="0 0 800 200" width="800" height="200" xmlns="http://www.w3.org/2000/svg" xmlns:xlink="http://www.w3.org/1999/xlink" version="1.1"><path d="M0 25L73 31L145 27L218 17L291 19L364 27L436 25L509 27L582 37L655 33L727 25L800 33L800 0L727 0L655 0L582 0L509 0L436 0L364 0L291 0L218 0L145 0L73 0L0 0Z" fill="#5e007f"></path><path d="M0 43L73 59L145 57L218 45L291 39L364 55L436 49L509 53L582 51L655 53L727 41L800 65L800 31L727 23L655 31L582 35L509 25L436 23L364 25L291 17L218 15L145 25L73 29L0 23Z" fill="#80007b"></path><path d="M0 89L73 83L145 95L218 95L291 63L364 91L436 95L509 81L582 81L655 97L727 89L800 105L800 63L727 39L655 51L582 49L509 51L436 47L364 53L291 37L218 43L145 55L73 57L0 41Z" fill="#9b0075"></path><path d="M0 169L73 127L145 165L218 137L291 113L364 143L436 163L509 147L582 137L655 151L727 143L800 165L800 103L727 87L655 95L582 79L509 79L436 93L364 89L291 61L218 93L145 93L73 81L0 87Z" fill="#b20f6f"></path><path d="M0 201L73 201L145 201L218 201L291 201L364 201L436 201L509 201L582 201L655 201L727 201L800 201L800 163L727 141L655 149L582 135L509 145L436 161L364 141L291 111L218 135L145 163L73 125L0 167Z" fill="#c62368"></path></svg>