<svg id="visual" viewBox="0 0 800 200" width="800" height="200" xmlns="http://www.w3.org/2000/svg" xmlns:xlink="http://www.w3.org/1999/xlink" version="1.1"><path d="M0 41L73 29L145 23L218 31L291 43L364 39L436 21L509 45L582 51L655 31L727 39L800 45L800 0L727 0L655 0L582 0L509 0L436 0L364 0L291 0L218 0L145 0L73 0L0 0Z" fill="#253952"></path><path d="M0 93L73 81L145 57L218 105L291 111L364 107L436 69L509 103L582 115L655 115L727 97L800 99L800 43L727 37L655 29L582 49L509 43L436 19L364 37L291 41L218 29L145 21L73 27L0 39Z" fill="#1d304b"></path><path d="M0 121L73 105L145 89L218 141L291 149L364 137L436 107L509 133L582 139L655 131L727 117L800 135L800 97L727 95L655 113L582 113L509 101L436 67L364 105L291 109L218 103L145 55L73 79L0 91Z" fill="#162744"></path><path d="M0 185L73 169L145 169L218 179L291 187L364 183L436 175L509 181L582 179L655 171L727 181L800 173L800 133L727 115L655 129L582 137L509 131L436 105L364 135L291 147L218 139L145 87L73 103L0 119Z" fill="#0f1e3d"></path><path d="M0 201L73 201L145 201L218 201L291 201L364 201L436 201L509 201L582 201L655 201L727 201L800 201L800 171L727 179L655 169L582 177L509 179L436 173L364 181L291 185L218 177L145 167L73 167L0 183Z" fill="#091636"></path></svg>