<svg id="visual" viewBox="0 0 800 300" width="800" height="300" xmlns="http://www.w3.org/2000/svg" xmlns:xlink="http://www.w3.org/1999/xlink" version="1.1"><path d="M0 50L114 58L229 135L343 102L457 68L571 103L686 107L800 51L800 301L686 301L571 301L457 301L343 301L229 301L114 301L0 301Z" fill="#122658"></path><path d="M0 102L114 146L229 115L343 130L457 140L571 118L686 120L800 155L800 301L686 301L571 301L457 301L343 301L229 301L114 301L0 301Z" fill="#00426f"></path><path d="M0 204L114 147L229 182L343 205L457 192L571 195L686 193L800 190L800 301L686 301L571 301L457 301L343 301L229 301L114 301L0 301Z" fill="#005e81"></path><path d="M0 241L114 207L229 200L343 223L457 181L571 226L686 204L800 239L800 301L686 301L571 301L457 301L343 301L229 301L114 301L0 301Z" fill="#00798a"></path><path d="M0 259L114 248L229 258L343 235L457 256L571 266L686 231L800 253L800 301L686 301L571 301L457 301L343 301L229 301L114 301L0 301Z" fill="#199282"></path></svg>