<svg id="visual" viewBox="0 0 800 300" width="800" height="300" xmlns="http://www.w3.org/2000/svg" xmlns:xlink="http://www.w3.org/1999/xlink" version="1.1"><rect x="0" y="0" width="800" height="300" fill="#199282"></rect><path d="M0 60L114 67L229 149L343 112L457 93L571 52L686 134L800 107L800 301L686 301L571 301L457 301L343 301L229 301L114 301L0 301Z" fill="#007294"></path><path d="M0 118L114 139L229 170L343 161L457 101L571 140L686 174L800 136L800 301L686 301L571 301L457 301L343 301L229 301L114 301L0 301Z" fill="#196384"></path><path d="M0 168L114 187L229 167L343 167L457 175L571 167L686 182L800 155L800 301L686 301L571 301L457 301L343 301L229 301L114 301L0 301Z" fill="#225474"></path><path d="M0 213L114 205L229 203L343 186L457 183L571 184L686 198L800 225L800 301L686 301L571 301L457 301L343 301L229 301L114 301L0 301Z" fill="#254663"></path><path d="M0 259L114 251L229 256L343 231L457 252L571 230L686 243L800 267L800 301L686 301L571 301L457 301L343 301L229 301L114 301L0 301Z" fill="#253952"></path></svg>