<svg id="visual" viewBox="0 0 800 200" width="800" height="200" xmlns="http://www.w3.org/2000/svg" xmlns:xlink="http://www.w3.org/1999/xlink" version="1.1"><path d="M0 25L133 51L267 33L400 17L533 19L667 35L800 41L800 0L667 0L533 0L400 0L267 0L133 0L0 0Z" fill="#091636"></path><path d="M0 39L133 67L267 67L400 49L533 35L667 49L800 65L800 39L667 33L533 17L400 15L267 31L133 49L0 23Z" fill="#121a4c"></path><path d="M0 91L133 93L267 131L400 101L533 95L667 121L800 119L800 63L667 47L533 33L400 47L267 65L133 65L0 37Z" fill="#261b60"></path><path d="M0 169L133 163L267 183L400 163L533 161L667 165L800 179L800 117L667 119L533 93L400 99L267 129L133 91L0 89Z" fill="#401671"></path><path d="M0 201L133 201L267 201L400 201L533 201L667 201L800 201L800 177L667 163L533 159L400 161L267 181L133 161L0 167Z" fill="#5e007f"></path></svg>